# xmcd
#
# Track frame offsets:
#	150
#	12323
#	23062
#	37914
#	53637
#	67607
#	84313
#	105412
#	118145
#	132814
#	145460
#	156037
#	170634
#	185240
#	194572
#	206113
#	219195
#	238082
#	252018
#	270341
#
# Disc length: 3915 seconds
#
# Revision: 1
# Processed by: cddbd v1.5.1PL0 Copyright (c) Steve Scherf et al.
# Submitted via: audiograbber 1.83.01
#
DISCID=110f4914
DTITLE=Willie Nelson - Singin' with Willie
DYEAR=2004
DGENRE=Country
TTITLE0=Willingly - Shirley Collie
TTITLE1=Ain't Life Hell - Hank Cochran
TTITLE2=Time Changes Everything - Johnny Bush
TTITLE3=John the Baptist - JR Chatwell
TTITLE4=After the Fire Is Gone - Tracy Nelson
TTITLE5=Boxcar's My Home - Boxcar Willie
TTITLE6=Song for Life - Rodney Crowell
TTITLE7=Just to Satisfy You w/ Waylon Jennings
TTITLE8=No Reason to Quit w/ Merle Haggard
TTITLE9=You Left Me a Long Time Ago w/ Brenda Lee
TTITLE10=Happy, Happy Birthday Baby w/ Dolly Parton
TTITLE11=Eye of the Storm w/ Kris Kristofferson
TTITLE12=I've ALready Cheated On You w/ David Allan Coe
TTITLE13=Something to Brag About w/ Mary Kay Place
TTITLE14=Man with the Blues - Buckwheat Zydeco
TTITLE15=Hondo's Song - Steve Fromholz
TTITLE16=These Eyes - Ray Wylie Hubbard
TTITLE17=Heart of the Country - B.W. Stevenson
TTITLE18=Just One Love - Kimmie Rhodes
TTITLE19=Memphis - Janis Ian
EXTD=
EXTT0=
EXTT1=
EXTT2=
EXTT3=
EXTT4=
EXTT5=
EXTT6=
EXTT7=
EXTT8=
EXTT9=
EXTT10=
EXTT11=
EXTT12=
EXTT13=
EXTT14=
EXTT15=
EXTT16=
EXTT17=
EXTT18=
EXTT19=
PLAYORDER=
